:FULLY-SPECIFIED
:FORCE-ALL-JOINTS-BE-3DOF
:DEGREES
679
root 5.43504 17.8409 1.31702 15.809 -31.4022 2.36214
lfemur -31.2332 17.6612 -2.26176
ltibia 81.1746 0 0
lfoot -15.0342 8.82367 0
ltoes 26.7216 0 0
rfemur -33.0701 -14.7729 23.8597
rtibia 32.4685 0 0
rfoot 7.99981 -3.08643 0
rtoes 1.15955 0 0
lowerback 1.17167 -3.78256 -4.45948
upperback -1.80177 -5.18384 -1.65269
thorax -2.22093 -2.54771 0.899715
lowerneck -8.13445 -5.59595 -0.348294
upperneck 2.76365 -7.73666 5.54301
head 2.5589 -3.68828 1.46395
lclavicle 2.063e-14 -2.52118e-15 0
lhumerus -5.63022 -45.3323 65.1619
lradius 75.0856 0 0
lwrist 28.5834 0 0
lhand -14.2442 -1.35054 0
lfingers 7.12502 0 0
lthumb 11.8808 28.0598 0
rclavicle 2.063e-14 -2.52118e-15 0
rhumerus -38.1826 -10.4963 -40.762
rradius 80.2987 0 0
rwrist -12.3234 0 0
rhand -32.7356 -45.9906 0
rfingers 7.12502 0 0
rthumb -5.95837 -795.865 0
680
root 5.4314 17.9201 1.46387 15.7334 -32.8621 2.36581
lfemur -32.0234 17.3635 -0.946198
ltibia 83.2486 0 0
lfoot -13.9539 8.47989 0
ltoes 27.1586 0 0
rfemur -31.6726 -14.0132 23.1509
rtibia 30.7596 0 0
rfoot 8.84538 -2.77533 0
rtoes 0.872123 0 0
lowerback 1.23215 -3.73804 -4.36403
upperback -1.81179 -5.12834 -1.6915
thorax -2.27995 -2.52093 0.811982
lowerneck -8.05224 -5.55402 -0.332186
upperneck 2.7947 -7.68107 5.50618
head 2.54962 -3.66243 1.45412
lclavicle 1.80167e-14 -1.55149e-15 0
lhumerus -3.96807 -44.0972 62.3841
lradius 75.1044 0 0
lwrist 28.7222 0 0
lhand -14.7173 -1.58505 0
lfingers 7.12502 0 0
lthumb 11.4248 27.854 0
rclavicle 1.80167e-14 -1.55149e-15 0
rhumerus -37.772 -10.5031 -39.3281
rradius 81.3584 0 0
rwrist -12.1066 0 0
rhand -32.8879 -45.7481 0
rfingers 7.12502 0 0
rthumb -6.10543 -795.619 0
681
root 5.42776 17.9993 1.61072 15.6578 -34.3221 2.36948
lfemur -32.8136 17.0657 0.369363
ltibia 85.3227 0 0
lfoot -12.8737 8.1361 0
ltoes 27.5957 0 0
rfemur -30.2751 -13.2536 22.4421
rtibia 29.0508 0 0
rfoot 9.69096 -2.46424 0
rtoes 0.584696 0 0
lowerback 1.29263 -3.69351 -4.26858
upperback -1.82181 -5.07283 -1.73032
thorax -2.33898 -2.49416 0.724249
lowerneck -7.97003 -5.5121 -0.316078
upperneck 2.82574 -7.62547 5.46936
head 2.54034 -3.63658 1.44428
lclavicle 1.54034e-14 -5.8181e-16 0
lhumerus -2.30591 -42.8622 59.6063
lradius 75.1232 0 0
lwrist 28.861 0 0
lhand -15.1904 -1.81955 0
lfingers 7.12502 0 0
lthumb 10.9689 27.6481 0
rclavicle 1.54034e-14 -5.8181e-16 0
rhumerus -37.3613 -10.5099 -37.8942
rradius 82.4181 0 0
rwrist -11.8899 0 0
rhand -33.0403 -45.5056 0
rfingers 7.12502 0 0
rthumb -6.25249 -795.372 0
682
root 5.42411 18.0785 1.75757 15.5821 -35.782 2.37315
lfemur -33.6038 16.768 1.68492
ltibia 87.3968 0 0
lfoot -11.7934 7.79232 0
ltoes 28.0327 0 0
rfemur -28.8776 -12.4939 21.7332
rtibia 27.3419 0 0
rfoot 10.5365 -2.15314 0
rtoes 0.297269 0 0
lowerback 1.35311 -3.64899 -4.17313
upperback -1.83183 -5.01733 -1.76913
thorax -2.39801 -2.46738 0.636516
lowerneck -7.88782 -5.47017 -0.29997
upperneck 2.85678 -7.56988 5.43253
head 2.53106 -3.61074 1.43445
lclavicle 1.27901e-14 3.87873e-16 0
lhumerus -0.643759 -41.6272 56.8285
lradius 75.1421 0 0
lwrist 28.9998 0 0
lhand -15.6636 -2.05405 0
lfingers 7.12502 0 0
lthumb 10.513 27.4423 0
rclavicle 1.27901e-14 3.87873e-16 0
rhumerus -36.9507 -10.5167 -36.4603
rradius 83.4778 0 0
rwrist -11.6732 0 0
rhand -33.1926 -45.2631 0
rfingers 7.12502 0 0
rthumb -6.39954 -795.126 0
683
root 5.42047 18.1577 1.90442 15.5065 -37.242 2.37682
lfemur -34.394 16.4702 3.00049
ltibia 89.4709 0 0
lfoot -10.7131 7.44854 0
ltoes 28.4697 0 0
rfemur -27.4802 -11.7342 21.0244
rtibia 25.633 0 0
rfoot 11.3821 -1.84205 0
rtoes 0.00984244 0 0
lowerback 1.41359 -3.60447 -4.07768
upperback -1.84185 -4.96182 -1.80795
thorax -2.45703 -2.44061 0.548783
lowerneck -7.80561 -5.42824 -0.283862
upperneck 2.88782 -7.51429 5.3957
head 2.52178 -3.58489 1.42461
lclavicle 1.01768e-14 1.35756e-15 0
lhumerus 1.0184 -40.3922 54.0506
lradius 75.1609 0 0
lwrist 29.1386 0 0
lhand -16.1367 -2.28856 0
lfingers 7.12502 0 0
lthumb 10.057 27.2365 0
rclavicle 1.01768e-14 1.35756e-15 0
rhumerus -36.5401 -10.5235 -35.0264
rradius 84.5375 0 0
rwrist -11.4565 0 0
rhand -33.3449 -45.0207 0
rfingers 7.12502 0 0
rthumb -6.5466 -794.879 0
684
root 5.41682 18.2369 2.05127 15.4308 -38.7019 2.38049
lfemur -35.1842 16.1725 4.31605
ltibia 91.5449 0 0
lfoot -9.63285 7.10475 0
ltoes 28.9068 0 0
rfemur -26.0827 -10.9746 20.3155
rtibia 23.9242 0 0
rfoot 12.2277 -1.53095 0
rtoes -0.277584 0 0
lowerback 1.47406 -3.55994 -3.98223
upperback -1.85187 -4.90632 -1.84676
thorax -2.51606 -2.41383 0.46105
lowerneck -7.72339 -5.38631 -0.267754
upperneck 2.91887 -7.4587 5.35888
head 2.51251 -3.55905 1.41478
lclavicle 7.5635e-15 2.32724e-15 0
lhumerus 2.68055 -39.1571 51.2728
lradius 75.1798 0 0
lwrist 29.2774 0 0
lhand -16.6098 -2.52306 0
lfingers 7.12502 0 0
lthumb 9.60106 27.0307 0
rclavicle 7.5635e-15 2.32724e-15 0
rhumerus -36.1295 -10.5303 -33.5925
rradius 85.5972 0 0
rwrist -11.2398 0 0
rhand -33.4972 -44.7782 0
rfingers 7.12502 0 0
rthumb -6.69365 -794.633 0
685
root 5.41318 18.3161 2.19812 15.3552 -40.1619 2.38416
lfemur -35.9744 15.8747 5.63161
ltibia 93.619 0 0
lfoot -8.55258 6.76097 0
ltoes 29.3438 0 0
rfemur -24.6852 -10.2149 19.6067
rtibia 22.2153 0 0
rfoot 13.0732 -1.21986 0
rtoes -0.565011 0 0
lowerback 1.53454 -3.51542 -3.88678
upperback -1.86189 -4.85082 -1.88558
thorax -2.57508 -2.38705 0.373317
lowerneck -7.64118 -5.34438 -0.251646
upperneck 2.94991 -7.40311 5.32205
head 2.50323 -3.5332 1.40494
lclavicle 4.9502e-15 3.29692e-15 0
lhumerus 4.3427 -37.9221 48.495
lradius 75.1986 0 0
lwrist 29.4162 0 0
lhand -17.0829 -2.75757 0
lfingers 7.12502 0 0
lthumb 9.14512 26.8249 0
rclavicle 4.9502e-15 3.29692e-15 0
rhumerus -35.7189 -10.5371 -32.1586
rradius 86.6569 0 0
rwrist -11.0231 0 0
rhand -33.6495 -44.5357 0
rfingers 7.12502 0 0
rthumb -6.84071 -794.386 0
686
root 5.40954 18.3953 2.34497 15.2796 -41.6218 2.38783
lfemur -36.7646 15.577 6.94717
ltibia 95.6931 0 0
lfoot -7.47231 6.41719 0
ltoes 29.7809 0 0
rfemur -23.2877 -9.45522 18.8979
rtibia 20.5064 0 0
rfoot 13.9188 -0.908761 0
rtoes -0.852438 0 0
lowerback 1.59502 -3.47089 -3.79133
upperback -1.87191 -4.79531 -1.92439
thorax -2.63411 -2.36028 0.285584
lowerneck -7.55897 -5.30246 -0.235538
upperneck 2.98095 -7.34752 5.28523
head 2.49395 -3.50735 1.39511
lclavicle 2.33691e-15 4.2666e-15 0
lhumerus 6.00486 -36.6871 45.7172
lradius 75.2174 0 0
lwrist 29.555 0 0
lhand -17.556 -2.99207 0
lfingers 7.12502 0 0
lthumb 8.68917 26.6191 0
rclavicle 2.33691e-15 4.2666e-15 0
rhumerus -35.3083 -10.544 -30.7248
rradius 87.7166 0 0
rwrist -10.8064 0 0
rhand -33.8019 -44.2932 0
rfingers 7.12502 0 0
rthumb -6.98777 -794.14 0
687
root 5.40589 18.4745 2.49182 15.2039 -43.0818 2.3915
lfemur -37.5548 15.2792 8.26273
ltibia 97.7672 0 0
lfoot -6.39203 6.0734 0
ltoes 30.2179 0 0
rfemur -21.8902 -8.69555 18.189
rtibia 18.7976 0 0
rfoot 14.7644 -0.597666 0
rtoes -1.13986 0 0
lowerback 1.6555 -3.42637 -3.69588
upperback -1.88193 -4.73981 -1.96321
thorax -2.69314 -2.3335 0.197851
lowerneck -7.47676 -5.26053 -0.21943
upperneck 3.01199 -7.29193 5.2484
head 2.48467 -3.48151 1.38527
lclavicle -2.7638e-16 5.23629e-15 0
lhumerus 7.66701 -35.4521 42.9393
lradius 75.2363 0 0
lwrist 29.6938 0 0
lhand -18.0291 -3.22657 0
lfingers 7.12502 0 0
lthumb 8.23322 26.4133 0
rclavicle -2.7638e-16 5.23629e-15 0
rhumerus -34.8977 -10.5508 -29.2909
rradius 88.7763 0 0
rwrist -10.5897 0 0
rhand -33.9542 -44.0507 0
rfingers 7.12502 0 0
rthumb -7.13482 -793.893 0
688
root 5.40225 18.5538 2.63867 15.1283 -44.5418 2.39517
lfemur -38.345 14.9815 9.57829
ltibia 99.8412 0 0
lfoot -5.31176 5.72962 0
ltoes 30.655 0 0
rfemur -20.4927 -7.93588 17.4802
rtibia 17.0887 0 0
rfoot 15.61 -0.286571 0
rtoes -1.42729 0 0
lowerback 1.71598 -3.38184 -3.60042
upperback -1.89196 -4.68431 -2.00203
thorax -2.75216 -2.30672 0.110119
lowerneck -7.39455 -5.2186 -0.203322
upperneck 3.04304 -7.23633 5.21158
head 2.47539 -3.45566 1.37544
lclavicle -2.88967e-15 6.20597e-15 0
lhumerus 9.32916 -34.217 40.1615
lradius 75.2551 0 0
lwrist 29.8326 0 0
lhand -18.5022 -3.46108 0
lfingers 7.12502 0 0
lthumb 7.77728 26.2074 0
rclavicle -2.88967e-15 6.20597e-15 0
rhumerus -34.487 -10.5576 -27.857
rradius 89.836 0 0
rwrist -10.373 0 0
rhand -34.1065 -43.8082 0
rfingers 7.12502 0 0
rthumb -7.28188 -793.647 0
689
root 5.39861 18.633 2.78552 15.0527 -46.0017 2.39884
lfemur -39.1352 14.6837 10.8939
ltibia 101.915 0 0
lfoot -4.23149 5.38584 0
ltoes 31.092 0 0
rfemur -19.0952 -7.17622 16.7714
rtibia 15.3798 0 0
rfoot 16.4555 0.0245239 0
rtoes -1.71472 0 0
lowerback 1.77646 -3.33732 -3.50497
upperback -1.90198 -4.6288 -2.04084
thorax -2.81119 -2.27995 0.0223856
lowerneck -7.31234 -5.17667 -0.187214
upperneck 3.07408 -7.18074 5.17475
head 2.46611 -3.42981 1.3656
lclavicle -5.50297e-15 7.17565e-15 0
lhumerus 10.9913 -32.982 37.3837
lradius 75.2739 0 0
lwrist 29.9714 0 0
lhand -18.9753 -3.69558 0
lfingers 7.12502 0 0
lthumb 7.32133 26.0016 0
rclavicle -5.50297e-15 7.17565e-15 0
rhumerus -34.0764 -10.5644 -26.4231
rradius 90.8957 0 0
rwrist -10.1562 0 0
rhand -34.2588 -43.5657 0
rfingers 7.12502 0 0
rthumb -7.42894 -793.4 0
690
root 5.39496 18.7122 2.93237 14.977 -47.4617 2.40251
lfemur -39.9254 14.386 12.2094
ltibia 103.989 0 0
lfoot -3.15122 5.04206 0
ltoes 31.529 0 0
rfemur -17.6978 -6.41655 16.0625
rtibia 13.6709 0 0
rfoot 17.3011 0.335619 0
rtoes -2.00215 0 0
lowerback 1.83694 -3.2928 -3.40952
upperback -1.912 -4.5733 -2.07966
thorax -2.87022 -2.25317 -0.0653474
lowerneck -7.23012 -5.13474 -0.171106
upperneck 3.10512 -7.12515 5.13792
head 2.45684 -3.40397 1.35577
lclavicle -8.11626e-15 8.14534e-15 0
lhumerus 12.6535 -31.747 34.6059
lradius 75.2928 0 0
lwrist 30.1102 0 0
lhand -19.4484 -3.93009 0
lfingers 7.12502 0 0
lthumb 6.86539 25.7958 0
rclavicle -8.11626e-15 8.14534e-15 0
rhumerus -33.6658 -10.5712 -24.9892
rradius 91.9554 0 0
rwrist -9.93954 0 0
rhand -34.4111 -43.3232 0
rfingers 7.12502 0 0
rthumb -7.57599 -793.154 0
